<?xml version="1.0" standalone="no"?>
<!DOCTYPE svg PUBLIC "-//W3C//DTD SVG 20010904//EN"
 "http://www.w3.org/TR/2001/REC-SVG-20010904/DTD/svg10.dtd">
<svg version="1.0" xmlns="http://www.w3.org/2000/svg"
 width="1563.000000pt" height="1563.000000pt" viewBox="0 0 1563.000000 1563.000000"
 preserveAspectRatio="xMidYMid meet">

<g transform="translate(0.000000,1563.000000) scale(0.100000,-0.100000)"
fill="#000000" stroke="none">
<path d="M7685 15393 c-457 -15 -907 -64 -1305 -143 -1382 -276 -2640 -916
-3669 -1867 l-73 -68 61 -54 62 -53 107 99 c771 710 1759 1274 2796 1595 1075
333 2274 415 3391 232 735 -120 1498 -370 2157 -705 l127 -65 56 56 c30 30 55
59 55 63 0 12 -418 216 -615 300 -895 381 -1825 586 -2735 603 -146 2 -283 6
-305 7 -22 1 -71 1 -110 0z"/>
<path d="M11537 14049 c-99 -160 -177 -292 -175 -294 1 -2 59 -38 128 -80
l124 -77 23 28 c13 16 21 33 20 39 -3 7 -87 64 -156 104 -12 7 -7 22 27 77 23
38 45 75 51 83 7 11 21 6 72 -24 l62 -38 24 29 c12 16 23 32 23 36 0 4 -27 23
-60 43 -33 20 -60 41 -60 46 0 10 109 187 119 193 4 3 38 -16 76 -40 110 -70
100 -68 125 -27 11 20 17 39 13 43 -21 17 -242 150 -249 150 -5 -1 -89 -132
-187 -291z"/>
<path d="M12055 14037 c-23 -13 -52 -42 -70 -71 -44 -73 -41 -135 13 -245 49
-100 59 -141 42 -182 -28 -68 -97 -79 -154 -25 -38 35 -46 69 -25 109 10 18 8
25 -22 49 -18 15 -37 28 -41 28 -17 0 -38 -62 -38 -110 0 -59 15 -93 62 -136
47 -45 92 -65 147 -66 63 -2 112 29 148 90 43 73 38 132 -20 258 -52 113 -56
135 -27 181 27 45 54 58 91 42 57 -23 84 -82 59 -129 -8 -16 -4 -23 23 -44 43
-33 52 -32 65 2 21 51 24 79 12 120 -14 55 -50 95 -112 126 -64 32 -101 33
-153 3z"/>
<path d="M12455 13799 l-27 -33 47 -41 47 -40 -182 -225 c-100 -124 -184 -230
-187 -237 -6 -14 46 -64 63 -60 7 1 92 101 189 222 98 121 181 224 186 229 5
5 28 -6 56 -28 l48 -37 28 33 c22 26 25 35 14 43 -18 14 -218 175 -238 192
-14 12 -20 10 -44 -18z"/>
<path d="M12880 13325 l-32 -33 54 -15 c29 -9 66 -19 81 -23 15 -3 27 -10 25
-14 -2 -5 -82 -91 -178 -192 -96 -101 -186 -196 -199 -211 l-25 -27 29 -30
c16 -17 32 -30 36 -30 4 0 114 111 244 247 l236 247 -38 37 c-31 30 -53 40
-120 56 l-82 20 -31 -32z"/>
<path d="M13196 13075 c-42 -15 -158 -121 -182 -167 -38 -72 12 -174 101 -208
l30 -12 -58 -53 c-67 -61 -95 -72 -136 -51 -41 22 -57 66 -37 104 15 28 14 30
-19 62 l-34 33 -20 -34 c-29 -47 -34 -83 -21 -126 35 -108 151 -170 243 -130
36 16 335 294 353 329 20 39 17 112 -6 158 -22 44 -68 82 -119 99 -42 14 -47
13 -95 -4z m119 -110 c43 -42 34 -79 -33 -147 -67 -66 -102 -75 -146 -35 -51
46 -38 94 47 166 57 49 95 54 132 16z"/>
<path d="M2430 12957 c-60 -17 -110 -48 -154 -97 -97 -108 -112 -240 -39 -347
26 -38 588 -563 602 -563 4 0 28 22 55 49 l47 48 -294 272 c-161 149 -299 282
-305 296 -53 117 76 251 190 198 21 -10 164 -135 319 -278 155 -143 285 -261
289 -263 4 -1 28 21 53 51 l45 53 -298 275 c-173 158 -315 281 -337 291 -55
24 -121 29 -173 15z"/>
<path d="M4340 12644 c-970 -729 -1683 -1707 -2077 -2849 -307 -890 -396
-1878 -252 -2823 175 -1152 676 -2215 1451 -3077 801 -892 1828 -1513 2978
-1800 295 -74 538 -116 875 -152 243 -26 908 -26 1145 0 684 74 1277 233 1880
504 894 402 1716 1066 2307 1863 109 147 283 403 278 408 -2 2 -45 -26 -97
-61 -276 -191 -771 -453 -1103 -584 -409 -161 -855 -285 -1252 -348 l-43 -7 0
1320 0 1320 53 108 c52 108 52 109 52 206 0 73 -4 101 -15 111 -8 8 -48 22
-89 32 l-74 18 6 666 6 666 31 94 c26 79 30 106 28 175 l-3 81 -45 23 c-72 36
-72 36 -65 217 3 88 10 300 16 470 l10 310 29 64 c22 46 30 78 30 118 0 58
-12 76 -97 140 l-28 21 -1 240 -2 239 -26 40 c-30 46 -50 133 -91 399 l-27
172 31 107 c47 163 39 303 -23 410 -22 37 -24 56 -30 240 -12 349 -27 477 -52
452 -9 -9 -22 -144 -38 -409 -14 -225 -17 -242 -45 -305 -16 -38 -35 -103 -42
-146 -15 -87 -9 -127 37 -278 l26 -87 -31 -193 c-39 -234 -53 -299 -81 -364
-20 -46 -22 -70 -24 -282 l-3 -233 -58 -60 c-53 -56 -57 -64 -52 -96 3 -19 20
-66 38 -105 l32 -70 -7 -479 c-3 -264 -9 -487 -13 -495 -3 -9 -23 -23 -44 -32
-27 -10 -41 -23 -45 -40 -12 -44 4 -126 37 -201 l32 -73 -9 -701 c-9 -670 -11
-701 -29 -714 -10 -8 -36 -14 -57 -14 -63 0 -78 -24 -78 -125 0 -94 5 -109 86
-239 l44 -70 0 -1358 0 -1358 -227 0 c-1450 1 -2845 532 -3928 1495 -867 771
-1485 1765 -1790 2879 -228 836 -272 1728 -125 2582 129 746 382 1425 779
2087 13 20 21 37 19 37 -1 0 -55 -39 -118 -86z"/>
<path d="M13492 12690 c-47 -29 -315 -253 -339 -284 -27 -34 -36 -87 -24 -133
13 -46 62 -108 102 -129 44 -22 112 -20 155 5 56 33 132 101 156 138 41 67 3
169 -79 211 l-35 18 48 41 c89 73 119 79 165 34 32 -32 37 -65 15 -96 -12 -18
-11 -24 16 -55 l29 -35 24 28 c65 74 26 209 -77 263 -40 21 -117 18 -156 -6z
m-60 -270 c40 -40 34 -81 -19 -129 -85 -76 -127 -87 -168 -46 -51 50 -30 104
69 176 50 37 80 37 118 -1z"/>
<path d="M1887 12400 c-20 -27 -37 -54 -37 -59 0 -5 112 -91 249 -192 138
-101 249 -184 248 -185 -1 -1 -150 27 -332 62 -181 35 -335 64 -342 64 -15 0
-84 -90 -78 -101 3 -4 184 -139 403 -300 218 -161 402 -296 408 -301 8 -5 26
11 53 46 22 31 41 57 41 60 0 3 -115 89 -255 192 -140 104 -253 189 -252 191
2 1 157 -29 346 -68 189 -38 345 -68 346 -67 1 2 18 25 38 52 l37 49 -58 42
c-32 23 -215 158 -407 300 -192 141 -354 259 -360 261 -6 3 -27 -18 -48 -46z"/>
<path d="M13754 12205 c-190 -36 -227 -46 -258 -70 -20 -15 -36 -30 -36 -33 0
-2 32 -49 70 -103 39 -54 70 -100 70 -103 0 -2 -24 -21 -52 -42 -29 -21 -57
-41 -62 -45 -10 -9 33 -79 47 -79 5 0 36 19 69 42 l60 42 20 -27 c24 -32 28
-33 62 -6 l26 21 -19 31 -19 32 175 125 c96 68 177 128 179 132 9 14 -78 128
-95 127 -9 -1 -116 -21 -237 -44z m211 -54 c-27 -24 -284 -201 -291 -201 -11
1 -99 128 -93 134 3 3 355 72 384 75 6 1 6 -2 0 -8z"/>
<path d="M14161 11856 c-28 -30 -51 -58 -51 -61 0 -3 35 -66 78 -138 463 -779
773 -1597 936 -2467 117 -627 152 -1353 96 -2000 -115 -1340 -617 -2679 -1397
-3725 -49 -66 -93 -126 -97 -133 -6 -10 8 -31 45 -68 29 -30 56 -54 60 -54 10
0 160 203 271 365 614 899 1044 1982 1213 3055 60 385 83 645 92 1045 23 1113
-189 2187 -630 3195 -58 132 -226 476 -291 595 -67 122 -261 445 -267 445 -3
0 -29 -24 -58 -54z"/>
<path d="M1426 11733 c-20 -31 -36 -60 -36 -63 0 -6 848 -534 865 -538 7 -2
28 24 47 56 l36 60 -417 258 c-229 142 -426 264 -437 271 -21 13 -24 11 -58
-44z"/>
<path d="M1126 11209 l-48 -91 23 -23 c32 -30 761 -639 776 -648 12 -8 73 89
73 114 -1 8 -151 138 -334 289 -183 151 -332 276 -331 278 1 1 190 -47 420
-108 229 -60 420 -110 424 -110 4 0 21 29 38 64 29 58 30 65 15 70 -44 14
-990 256 -998 256 -5 0 -31 -41 -58 -91z"/>
<path d="M821 10526 c-45 -112 -81 -208 -81 -214 0 -7 17 -19 37 -27 80 -34
73 -40 132 115 30 77 59 140 64 140 24 0 257 -96 257 -106 0 -6 -18 -54 -40
-108 -35 -86 -37 -98 -22 -103 9 -3 32 -12 51 -19 18 -8 39 -14 45 -14 6 0 29
45 50 100 21 55 41 100 44 100 3 0 77 -28 164 -62 93 -36 158 -67 158 -74 0
-8 -23 -71 -51 -140 -27 -70 -48 -132 -46 -138 4 -11 105 -52 111 -45 13 16
163 415 158 420 -4 4 -198 82 -432 174 -234 92 -446 176 -472 186 l-47 18 -80
-203z"/>
<path d="M8195 10311 c-350 -35 -636 -276 -735 -621 -31 -108 -39 -357 -15
-464 20 -93 86 -226 157 -321 82 -108 255 -275 464 -445 380 -311 493 -420
546 -529 20 -40 23 -61 23 -166 -1 -136 -10 -167 -72 -235 -62 -70 -117 -90
-248 -90 -94 0 -117 4 -160 24 -52 24 -101 72 -132 129 -16 27 -19 68 -23 292
l-5 260 -302 3 -303 2 0 -219 c0 -121 5 -255 11 -298 40 -298 250 -565 529
-673 130 -50 169 -55 385 -55 174 1 211 4 283 23 334 90 572 348 631 686 14
79 14 325 0 384 -17 70 -83 205 -136 280 -83 116 -252 280 -523 506 -392 327
-487 428 -527 565 -23 81 -14 210 20 277 104 205 382 203 484 -4 l28 -57 3
-247 4 -248 300 0 300 0 -4 268 c-4 235 -7 277 -27 347 -46 170 -153 335 -286
442 -84 67 -243 145 -340 167 -90 19 -228 26 -330 17z"/>
<path d="M11705 10310 c-155 -22 -292 -76 -405 -160 -182 -135 -307 -339 -340
-555 -7 -48 -10 -375 -8 -1025 4 -1070 -1 -996 79 -1168 112 -242 298 -398
566 -474 108 -30 425 -33 548 -4 171 39 304 116 427 244 89 93 150 192 189
305 41 121 49 188 49 445 l0 232 -299 0 -300 0 -3 -247 -3 -248 -28 -57 c-33
-67 -91 -121 -155 -142 -67 -23 -244 -21 -298 3 -59 27 -109 75 -138 133 l-26
52 0 966 0 966 26 52 c52 105 144 152 299 152 149 0 238 -48 292 -158 l28 -57
3 -247 4 -248 299 0 299 0 0 228 c0 125 -5 258 -10 297 -40 270 -230 523 -482
639 -120 56 -212 75 -393 80 -88 3 -187 1 -220 -4z"/>
<path d="M4997 10233 c-11 -10 -8 -2456 3 -2558 13 -125 33 -195 85 -300 83
-167 214 -298 380 -380 155 -77 216 -89 460 -89 188 0 218 2 288 22 173 49
295 121 408 238 105 111 154 193 205 344 l29 85 3 1323 2 1322 -300 0 -300 0
0 -1278 c0 -1431 5 -1340 -72 -1427 -67 -75 -119 -95 -258 -95 -100 0 -122 3
-165 24 -59 27 -107 72 -138 130 l-22 41 -5 1300 -5 1300 -296 3 c-162 1 -298
-1 -302 -5z"/>
<path d="M657 10083 c-8 -13 -38 -125 -35 -128 2 -1 71 -22 153 -45 83 -23
153 -44 156 -46 4 -2 -3 -39 -16 -81 l-22 -78 -139 -6 c-76 -4 -155 -7 -175
-8 -35 -1 -37 -2 -53 -59 -9 -32 -16 -62 -16 -67 0 -4 87 -5 193 -2 l192 7 19
-45 c29 -72 93 -120 205 -156 122 -39 224 -48 286 -25 47 18 117 82 141 127
17 34 105 332 99 337 -3 4 -878 256 -961 278 -12 3 -24 2 -27 -3z m657 -327
c87 -25 161 -48 164 -51 8 -8 -27 -136 -44 -163 -25 -38 -74 -62 -127 -62 -80
0 -195 39 -238 80 -51 49 -58 89 -29 190 l22 78 47 -13 c25 -8 118 -34 205
-59z"/>
<path d="M565 9301 c-177 -80 -229 -384 -86 -502 51 -42 128 -62 217 -57 94 6
144 36 224 131 137 161 155 180 194 198 52 24 90 23 143 0 34 -16 44 -27 53
-58 14 -46 1 -106 -30 -146 -23 -29 -81 -50 -115 -41 -19 5 -22 -1 -33 -59
-18 -96 -21 -90 56 -85 162 12 254 119 256 298 1 76 -2 90 -27 132 -60 103
-232 153 -352 103 -51 -21 -104 -70 -186 -172 -92 -114 -136 -150 -193 -158
-67 -10 -124 18 -148 72 -17 39 -18 50 -8 99 17 82 51 116 123 122 62 5 64 7
73 88 l7 54 -64 0 c-40 0 -79 -7 -104 -19z"/>
<path d="M335 8525 c-4 -36 -5 -68 -2 -71 7 -7 975 -105 1002 -102 17 3 21 13
26 68 4 36 5 66 4 68 -4 4 -967 102 -1002 102 -19 0 -22 -7 -28 -65z"/>
<path d="M1210 8148 l0 -91 -212 6 c-117 4 -322 10 -456 13 l-242 7 0 -70 0
-71 133 -6 c72 -3 226 -8 342 -11 116 -3 258 -8 318 -11 l107 -6 0 -88 0 -87
57 -6 c40 -4 60 -2 65 6 4 7 8 62 8 123 0 61 3 172 7 247 l6 137 -66 0 -67 0
0 -92z"/>
<path d="M985 7537 l-330 -151 -170 -10 -170 -11 2 -68 c0 -38 3 -71 6 -73 3
-3 79 0 170 6 189 14 128 26 557 -106 151 -47 283 -87 293 -90 16 -5 18 1 15
67 l-3 74 -250 76 -250 77 70 31 c39 18 145 66 238 108 l167 75 -1 47 c-1 25
-4 58 -8 72 l-6 26 -330 -150z"/>
<path d="M924 6541 c-291 -66 -328 -79 -379 -128 -57 -55 -80 -114 -79 -203 0
-121 59 -227 153 -274 86 -44 104 -43 407 24 153 34 300 71 327 82 94 40 150
137 150 255 -1 169 -124 304 -273 302 -30 -1 -168 -27 -306 -58z m408 -130
c41 -46 53 -104 33 -157 -9 -24 -30 -53 -46 -65 -32 -22 -524 -138 -590 -139
-78 0 -150 92 -135 173 8 43 49 95 85 109 26 9 473 113 521 120 50 7 104 -9
132 -41z"/>
<path d="M1093 5792 c-260 -87 -474 -160 -477 -163 -9 -9 35 -129 47 -129 7 0
95 28 195 61 101 34 187 57 191 53 4 -5 20 -51 36 -102 16 -51 32 -95 36 -98
7 -4 100 25 112 35 4 4 -8 53 -27 109 -19 56 -32 103 -28 106 33 18 326 106
332 100 4 -5 27 -67 50 -139 23 -71 46 -133 49 -138 4 -4 32 1 62 12 43 14 53
22 51 37 -12 62 -135 414 -145 413 -7 -1 -224 -71 -484 -157z"/>
<path d="M1666 5085 c-81 -33 -126 -72 -160 -138 -26 -51 -30 -72 -41 -225 -7
-93 -18 -180 -25 -193 -33 -64 -87 -99 -151 -99 -35 0 -47 6 -75 36 -20 21
-40 57 -49 89 -14 47 -14 58 -2 88 8 19 30 44 48 57 19 13 35 25 37 26 6 4
-58 124 -67 124 -18 0 -92 -62 -116 -98 -88 -133 -11 -374 144 -449 82 -40
227 -4 304 75 62 63 79 118 89 282 5 80 14 163 20 184 21 81 122 143 188 116
40 -17 80 -84 80 -136 0 -45 -29 -99 -59 -109 -27 -8 -27 -14 10 -86 l30 -61
27 18 c147 93 171 256 63 414 -72 104 -176 134 -295 85z"/>
<path d="M1742 4311 c-232 -147 -427 -272 -433 -278 -8 -8 0 -27 27 -67 20
-31 39 -56 41 -56 2 0 63 38 136 83 73 46 151 95 173 110 l42 26 71 -115 c39
-63 69 -119 66 -123 -2 -5 -79 -55 -170 -112 -91 -57 -165 -108 -165 -112 0
-20 66 -116 77 -112 9 3 798 498 856 536 5 4 -7 34 -28 68 -36 58 -39 60 -59
48 -12 -8 -95 -60 -186 -117 -91 -57 -174 -109 -185 -116 -19 -13 -25 -6 -93
102 -40 63 -71 118 -68 122 2 4 91 61 196 127 106 66 194 125 197 132 3 8 -65
127 -71 122 -1 0 -191 -121 -424 -268z"/>
<path d="M2170 3687 c-207 -160 -388 -302 -404 -314 l-28 -22 123 -158 c67
-87 131 -168 142 -180 l20 -22 46 37 c25 20 48 37 50 39 2 1 -36 53 -85 115
-48 62 -91 118 -96 124 -5 7 28 39 94 90 56 43 107 82 114 87 9 5 35 -21 79
-78 37 -47 69 -85 72 -85 3 0 28 16 55 36 43 32 47 38 35 53 -44 52 -128 163
-125 165 1 2 65 51 141 111 120 93 140 105 150 91 93 -125 174 -225 182 -225
6 0 30 17 54 37 l44 38 -138 177 c-76 97 -141 177 -144 177 -3 0 -175 -132
-381 -293z"/>
<path d="M12700 3578 c-68 -79 -134 -155 -148 -170 l-24 -26 388 -336 c214
-185 391 -335 395 -334 11 5 289 329 289 337 0 10 -77 81 -88 81 -4 0 -51 -52
-106 -116 l-98 -115 -22 19 c-19 17 -185 160 -195 168 -2 2 29 40 68 84 39 44
71 85 71 90 0 5 -20 25 -46 46 -38 32 -47 35 -58 23 -7 -8 -39 -45 -71 -82
-32 -37 -62 -66 -68 -64 -5 1 -67 52 -137 112 l-128 110 27 32 c14 17 60 71
101 119 l74 87 -43 38 c-24 22 -47 39 -51 39 -4 0 -63 -64 -130 -142z"/>
<path d="M2543 3174 c-205 -189 -373 -348 -373 -352 0 -4 21 -29 48 -55 l47
-47 150 140 150 139 78 -79 c43 -44 80 -80 82 -80 10 0 85 73 85 83 0 6 -32
43 -71 84 -39 40 -69 78 -67 84 2 6 60 62 128 125 l125 114 106 -112 105 -112
47 39 c26 22 46 42 45 46 -5 11 -301 329 -307 329 -3 0 -174 -156 -378 -346z"/>
<path d="M2964 2783 c-174 -192 -330 -362 -345 -378 l-28 -30 54 -48 54 -47
138 150 c76 82 141 150 144 150 3 0 40 -31 83 -70 42 -38 81 -70 86 -70 5 0
26 21 46 46 l38 46 -24 20 c-14 11 -51 45 -83 75 l-58 55 68 75 c37 41 91 100
119 131 l51 57 88 -80 c48 -44 101 -91 118 -104 l30 -25 39 45 c21 24 37 47
35 51 -3 12 -319 298 -328 298 -4 0 -150 -156 -325 -347z"/>
<path d="M12177 3032 l-48 -49 352 -364 c194 -200 357 -364 364 -364 6 0 83
69 171 153 l158 152 -46 46 -46 46 -111 -108 -112 -108 -53 55 c-29 30 -169
174 -311 322 -142 147 -261 267 -264 267 -4 0 -28 -22 -54 -48z"/>
<path d="M11949 2807 c-131 -37 -223 -139 -236 -262 -10 -92 11 -131 193 -361
234 -296 267 -324 391 -324 72 0 136 26 193 77 75 68 104 130 105 223 0 62 -4
83 -25 119 -14 25 -30 46 -36 48 -6 2 -34 -15 -63 -38 l-51 -41 20 -33 c13
-20 20 -50 20 -80 0 -43 -4 -52 -42 -90 -57 -56 -103 -65 -164 -33 -33 18 -82
71 -210 233 -207 260 -216 278 -172 357 51 91 157 107 235 35 l22 -20 56 43
56 43 -33 34 c-64 66 -170 95 -259 70z"/>
<path d="M3375 2374 c-174 -217 -315 -399 -313 -404 2 -4 25 -26 53 -49 39
-32 52 -38 61 -28 9 9 591 739 626 783 5 7 -10 26 -45 53 -30 22 -56 41 -59
41 -3 0 -148 -178 -323 -396z"/>
<path d="M3878 2503 c-208 -297 -529 -765 -526 -767 28 -23 357 -245 365 -248
6 -2 27 19 47 46 l35 49 -129 90 -129 89 57 81 c31 45 68 99 83 119 l26 37 93
-65 93 -64 34 50 c18 27 33 51 33 54 0 3 -39 33 -87 66 -49 34 -87 66 -85 72
2 6 46 73 99 149 l95 139 82 -57 c44 -31 102 -72 128 -90 l47 -34 29 43 c16
24 32 48 35 55 5 7 -58 56 -168 133 -96 66 -181 123 -189 126 -9 3 -33 -23
-68 -73z"/>
<path d="M11397 2389 c-51 -12 -100 -38 -233 -123 l-113 -73 275 -429 c161
-251 282 -428 290 -428 7 1 36 16 64 34 48 31 50 34 37 54 -77 116 -157 247
-157 254 0 17 128 94 142 86 7 -4 68 -54 135 -111 l122 -104 56 36 c31 20 55
40 53 45 -2 4 -67 61 -146 126 -100 82 -141 122 -137 132 20 52 25 109 15 157
-12 59 -99 206 -158 269 -62 65 -162 96 -245 75z m75 -139 c42 -12 95 -67 148
-155 28 -47 34 -68 34 -111 0 -67 -19 -95 -107 -151 l-66 -42 -115 180 c-64
99 -116 184 -116 188 0 11 108 82 139 92 36 10 41 10 83 -1z"/>
<path d="M4170 1815 c-138 -244 -249 -448 -246 -454 7 -11 386 -225 390 -220
24 30 57 102 49 110 -5 5 -63 40 -128 77 -65 37 -120 72 -122 77 -1 6 94 181
213 390 118 209 216 383 217 388 1 4 -26 23 -59 42 l-62 35 -252 -445z"/>
<path d="M10848 2087 c-32 -18 -58 -34 -58 -38 0 -8 470 -882 481 -893 9 -10
124 47 124 61 0 11 -479 903 -485 902 -3 0 -31 -14 -62 -32z"/>
<path d="M4890 1947 c-219 -492 -399 -901 -397 -903 1 -1 70 -32 152 -69 175
-78 248 -92 333 -60 102 39 121 67 258 375 92 207 109 254 112 306 5 72 -8
117 -48 173 -40 54 -79 79 -249 156 l-142 65 -19 -43z m200 -180 c30 -14 69
-39 85 -57 25 -27 30 -39 30 -83 0 -44 -16 -87 -103 -282 -57 -126 -110 -240
-118 -253 -22 -33 -74 -62 -111 -62 -29 0 -164 51 -187 71 -7 7 66 178 275
646 32 70 21 69 129 20z"/>
<path d="M10494 1910 c-154 -32 -269 -174 -249 -308 7 -47 210 -518 252 -584
29 -47 93 -95 147 -109 87 -24 210 7 282 68 78 68 116 175 95 268 -7 30 -16
57 -21 60 -7 4 -116 -38 -128 -49 -2 -2 2 -22 9 -44 15 -51 7 -82 -32 -127
-57 -64 -151 -71 -207 -15 -39 39 -243 498 -249 561 -6 56 14 99 59 127 77 46
152 35 196 -28 15 -22 32 -39 38 -40 7 0 37 12 68 26 l56 26 -22 40 c-53 94
-183 151 -294 128z"/>
<path d="M5845 1527 c-13 -45 -80 -268 -148 -494 l-124 -413 66 -20 c36 -11
69 -16 72 -12 4 4 72 225 152 492 131 440 143 486 127 492 -10 4 -41 13 -69
22 l-51 15 -25 -82z"/>
<path d="M9483 1552 c-24 -9 -62 -31 -86 -48 -56 -40 -107 -136 -107 -202 0
-60 145 -586 176 -639 47 -82 129 -125 236 -124 168 0 301 126 301 284 0 78
-7 83 -85 63 l-63 -18 3 -51 c2 -39 -2 -60 -18 -85 -49 -79 -194 -84 -244 -8
-23 36 -156 528 -156 579 0 83 60 137 150 137 60 0 98 -24 122 -76 14 -33 24
-44 36 -40 9 3 38 10 65 17 26 6 49 15 52 19 9 15 -49 112 -88 145 -72 62
-204 83 -294 47z"/>
<path d="M6252 1480 c-18 -4 -50 -19 -71 -33 -49 -33 -100 -130 -108 -208 -11
-113 31 -188 179 -317 57 -50 114 -108 126 -130 41 -74 22 -180 -40 -213 -55
-29 -176 1 -212 53 -10 13 -16 43 -16 74 l0 52 -67 16 c-37 8 -70 13 -72 10
-3 -3 -5 -35 -5 -72 0 -115 61 -198 183 -249 73 -29 196 -32 256 -4 84 38 134
118 142 225 10 123 -29 192 -178 322 -57 50 -114 108 -126 130 -28 48 -29 105
-4 161 24 51 70 69 135 52 73 -18 106 -59 106 -130 0 -46 0 -47 38 -52 20 -4
51 -9 69 -13 30 -6 32 -4 38 29 10 54 -12 142 -49 190 -65 85 -211 134 -324
107z"/>
<path d="M9011 1433 c-36 -7 -65 -14 -66 -16 -4 -5 190 -996 196 -1002 4 -3
37 0 73 6 60 11 67 15 62 33 -2 12 -46 237 -96 501 -51 264 -95 483 -99 486
-3 3 -35 0 -70 -8z"/>
<path d="M6805 1366 c-7 -38 -115 -950 -115 -977 0 -31 -20 -26 263 -60 98
-12 180 -19 183 -16 3 3 8 32 11 64 l5 59 -147 17 c-81 10 -150 19 -154 21 -4
3 17 204 47 446 29 243 52 444 50 445 -2 2 -34 8 -71 13 -64 8 -68 8 -72 -12z"/>
<path d="M8690 1371 c-22 -6 -34 -34 -114 -259 -49 -139 -92 -252 -95 -252 -3
0 -69 104 -145 231 l-139 232 -65 -6 c-36 -4 -66 -8 -67 -9 -4 -4 94 -999 99
-1014 4 -9 131 -3 140 7 3 3 -43 494 -58 613 -6 54 2 43 129 -169 59 -99 108
-181 110 -183 1 -2 14 0 28 3 22 6 32 27 93 198 37 106 72 202 78 214 9 18 18
-42 44 -304 18 -180 33 -327 35 -328 6 -5 127 12 133 18 7 6 -79 936 -92 995
-4 19 -11 22 -47 21 -23 -1 -53 -4 -67 -8z"/>
<path d="M7416 815 c-69 -277 -126 -509 -126 -515 0 -6 31 -10 74 -10 l73 0
18 85 18 85 112 0 c62 0 132 -3 157 -6 l45 -6 13 -72 c18 -101 13 -96 95 -96
l72 0 -99 487 c-54 268 -102 501 -106 518 l-8 30 -106 3 -105 3 -127 -506z
m284 64 c27 -140 52 -264 55 -277 l6 -23 -123 7 c-68 4 -124 8 -126 9 -1 1 28
124 64 274 36 150 68 270 71 268 2 -3 26 -119 53 -258z"/>
</g>
</svg>
