<?xml version="1.0" encoding="UTF-8" standalone="no"?>
<svg
   width="720px"
   height="280px"
   version="1.1"
   id="svg1"
   sodipodi:docname="Assalamu-aleykum.svg"
   inkscape:version="1.4 (86a8ad7, 2024-10-11)"
   xmlns:inkscape="http://www.inkscape.org/namespaces/inkscape"
   xmlns:sodipodi="http://sodipodi.sourceforge.net/DTD/sodipodi-0.dtd"
   xmlns="http://www.w3.org/2000/svg"
   xmlns:svg="http://www.w3.org/2000/svg">
  <defs
     id="defs1" />
  <sodipodi:namedview
     id="namedview1"
     pagecolor="#ffffff"
     bordercolor="#000000"
     borderopacity="0.25"
     inkscape:showpageshadow="2"
     inkscape:pageopacity="0.0"
     inkscape:pagecheckerboard="0"
     inkscape:deskcolor="#d1d1d1"
     inkscape:zoom="2.4625"
     inkscape:cx="360"
     inkscape:cy="139.89848"
     inkscape:window-width="1920"
     inkscape:window-height="1001"
     inkscape:window-x="-9"
     inkscape:window-y="-9"
     inkscape:window-maximized="1"
     inkscape:current-layer="svg1" />
  <title
     id="title1">السلام عليكم</title>
  <path
     fill="#005aff"
     d="m 100.1,87.1 c 7,-4.3 14.1,-8.6 21.1,-13.1 3.9,-2.5 7.6,-5.4 11.4,-8 1.6,-1.1 2.3,-1.9 0.3,-3.6 -6.8,-5.9 -4.7,-15 4,-17.9 3.3,-1.1 5.3,0.1 5.4,3.6 0.1,2.3 -0.1,4.6 -0.5,6.9 -0.3,2 -0.3,3.7 1.4,4.9 2.7,2 1.8,4.2 0.5,6.6 -0.8,1.5 -1.6,2.1 -3,0.8 -2.5,-2.6 -4,-0.4 -5.6,1.2 -10.1,9.8 -22.6,16.7 -35,18.6 z m 38.1,-32.9 c -0.3,-1.5 -0.2,-3.4 -2.6,-3.3 -1.3,0.1 -3.1,0.7 -2.7,2.2 0.4,1.8 2.2,3 4,3.4 1.5,0.4 1.1,-1.2 1.3,-2.3 z m -24,179.9 c -1.6,4.9 -3.9,6.1 -7.8,2.8 -4.8,-4.1 -6.3,-2.6 -9.2,2.2 -5.2,8.7 -13.7,13.8 -23.1,17.3 -7.8,3 -16.1,4.8 -24.5,5.2 7.6,-3.5 15.2,-6.9 22.8,-10.4 11.2,-5.2 22.1,-10.8 28,-22.7 1.1,-2.3 3.5,-4 5.3,-5.8 3.1,-3.1 5.3,-1.1 7.4,1.4 1.8,3 0.6,6.6 1.1,10 z m -2,-2 c -1.3,-2.4 -1.8,-4.8 -4.7,-4.1 -0.4,0.1 -1.1,0.2 -0.8,0.9 0.8,2.1 2.5,3 5.5,3.2 z M 129,133 c 3.9,1.8 7.8,3.6 11.6,5.5 3,1.5 5.6,3.8 4.2,7.5 -1.4,3.7 -3.9,5.5 -8.2,4 -4.7,-1.6 -9.6,-2.8 -13.9,-5.4 -3,-1.5 -4.9,-4.5 -5.1,-7.9 4.4,2.1 8.1,4.1 12,5.6 3.9,1.5 7.7,3.6 12.8,3.5 -2.6,-3.4 -6.1,-4.2 -9.1,-5.8 -2,-1.1 -4.2,-1.9 -6.2,-3.1 -2.8,-1.8 -3.6,-3.9 -0.2,-6 z m 0,0 -2,-2 c 4.3,-3.5 9.8,-5 15.3,-4.2 1.6,0.2 3,0.8 3.4,2.5 0,0.8 -0.3,1.6 -0.9,2.1 -1.4,1.4 -2.2,-0.2 -3.3,-0.7 -3.6,-1.9 -10.1,-0.5 -12.5,2.3 z m 44.9,-83.3 c 0.3,-2.8 2.1,-5.2 4.7,-6.3 18.9,-8 38.3,-14.5 58,-21.7 -0.2,3.5 -1.9,5.1 -4.2,6 -19.1,7.5 -38.2,15 -57.4,22.3 -0.2,0.1 -0.5,-0.2 -1.1,-0.3 z m 25,106.9 c -8.9,-2.4 -16.9,-1.5 -24.7,-2 -3.3,-0.2 -3.4,-0.7 -2.1,-3.6 3.4,-7.4 8.6,-10.8 16.9,-10.1 5.9,0.5 12,0.3 17.9,1.4 4.8,0.9 5.7,2.7 3.3,6.9 -5.5,9.5 -12,17.9 -23.5,20.8 -4.5,1.1 -8.9,2.5 -13.5,3.3 7.4,-6.7 17,-9.9 25.7,-16.7 z m 26.3,74.3 c -1.7,3.6 -3.2,6.9 -4.8,10.2 -0.5,1 -1.2,0.8 -2,0.2 -1.2,-0.9 -2.5,-1.6 -3.8,-2.4 -2.1,-1.3 -4.2,-3.8 -6.3,-3.8 -2.5,0 -2.6,3.6 -3.9,5.6 -1.3,2 -2.2,2 -3.9,0.8 -2.2,-1.7 -4.6,-3.3 -7,-4.8 -2.7,-1.6 -3,-3.3 -1.6,-6.1 4.1,-8.8 4.1,-9 12.2,-2.9 3.2,2.4 5,2.4 6.1,-1.6 1.3,-4.5 3.7,-4.7 7.1,-1.9 2.6,2.2 5.8,3.7 7.9,6.7 z m 2.4,-91.5 c -1.7,-4.8 -3.2,-9.3 -4.9,-13.7 -0.9,-2.3 -1.7,-4.1 -5.2,-4.2 -4.7,-0.1 -6.1,-4.5 -3.5,-8.5 2,-3.1 4.1,-2.8 6.6,-0.7 4.6,3.9 5.9,9.4 8,15.8 1,-3.8 1.6,-6.8 2.4,-9.6 0.5,-2.1 1.2,-4.1 2.2,-6.1 1.5,-2.7 2.8,-6.2 7,-4.5 3.3,1.4 3.8,5.2 1.5,9.3 -5.5,-4.1 -5.9,-4 -8,3 -1.3,4.4 -2.3,9 -3.4,13.5 -0.5,2.1 -0.9,4 -2.7,5.7 z m 40.9,-68.9 c 0,-5.6 3.6,-7 7.2,-8.4 29.4,-11 58.7,-22.1 88,-33.1 10.4,-3.9 20.9,-7.6 31.4,-11.3 1,-0.4 2.1,-0.6 3.5,-0.9 C 397.9,21 395,22 392,23.2 354.9,37.4 317.7,51.7 280.6,65.9 Z M 28,132.5 c -2.9,10.8 -5.7,21.2 -8.4,31.6 -1.6,5.8 -2.2,11.8 -1.6,17.8 0.4,3.7 1,7.6 5.1,9 4.5,1.5 7,-1.9 9.4,-4.9 1.2,-1.8 2.6,-3.5 4,-5.1 -0.2,8.9 -1.9,17.6 -8.5,24 -5.6,5.4 -13.9,2.9 -16.1,-4.7 -2.9,-10.4 -1.6,-20.8 0.5,-31.1 2.4,-11.6 7.2,-22.4 12.6,-32.9 0.6,-1.6 1.6,-2.9 3,-3.7 z m 252.8,103.9 c -5.7,7.4 -13.3,9 -21.6,8.4 -4.1,-0.3 -6.1,-2.9 -6.2,-7 -0.1,-4.5 1.8,-8.4 4,-12.1 1.4,-2.3 1.6,-4.1 -0.8,-5.9 -3.2,-2.5 -3,-5.7 -1.1,-8.9 1.9,-3.5 4.7,-6.5 8,-8.8 1.3,-0.8 2.7,-1.5 4,0 1.1,1.1 1.3,2.8 0.4,4.1 -0.6,1.3 -1.3,2.9 -3.3,2 -2.3,-1 -3.9,0 -4.9,2 -0.7,1.2 -0.4,2.8 0.8,3.5 v 0 c 1.6,1.6 4.1,1.8 6,0.5 1.5,-1 3,-2.1 4.5,-3.1 0.9,-0.6 1.8,-2 2.9,-0.9 1,1 0.2,2.3 -0.4,3.2 -1.1,1.7 -2.3,3.2 -3.6,4.7 -3.4,3.6 -7.4,6.7 -10.1,10.9 -1.6,2.4 -4.6,4.9 -2.8,7.9 1.7,2.8 5.3,2.1 8.3,2.1 3.5,-0.1 7,-0.6 10.3,-1.5 z M 291.9,31.9 c 1.2,-5 1.9,-10.2 5,-14.5 1.4,-1.9 3.2,-3.9 5.8,-2.2 2.3,1.5 3.8,3.8 2.9,6.8 -0.6,1.8 -1.4,3.9 -3.6,1.1 -2.3,-3 -4,-1.6 -4.8,1.1 -1.6,5.1 -2.8,10.3 -4.1,15.4 -0.6,2.3 -0.8,4.9 -3.5,7 -1,-4.9 -2.6,-9.7 -4.6,-14.2 -1,-2.2 -1.8,-4 -5,-3.7 -2.6,0.1 -4.9,-1.8 -5.3,-4.4 -0.2,-2.2 1.5,-4.9 3.8,-6 2.3,-1.1 4,0.9 5.5,2.4 3.5,3.4 4.8,7.9 6.1,12.4 -0.1,0.8 -0.1,1.8 0.9,1.6 1.5,-0.4 1,-1.7 0.9,-2.8 z M 33.8,74 c 5.7,-7 1.3,-13.2 -1.5,-19.6 -0.9,-2 -2.2,-2.5 -4.3,-2.5 -2.6,0 -4.8,-1.9 -5.3,-4.4 -0.3,-2.1 1.4,-4.9 3.7,-6.1 2.6,-1.4 4.4,0.8 6,2.4 3.6,3.9 4.4,9.1 6.6,15.2 1.2,-4.5 2.1,-7.9 2.9,-11.4 0.4,-2.5 1.4,-4.8 2.9,-6.8 1.3,-1.7 2.8,-3.8 5.3,-2.6 2.6,1.1 4.1,3.8 3.6,6.5 -0.4,2 -1,5 -3.9,1.5 -1.9,-2.4 -3.4,-1.5 -4.4,0.8 -2.5,5.8 -3.5,12.1 -5.1,18.2 -0.4,1.6 0.6,2.3 1.8,3.1 1.8,1.2 3.5,2.5 5,4.1 3.8,3.8 2.4,9 -2.7,10.6 -10.6,3.2 -10.6,3.2 -8.3,13.9 2.1,9.8 3.2,19.6 1.4,29.6 -1,-12.8 -4.5,-25.2 -5.8,-37.9 -0.3,-3.2 0.9,-6.4 3.3,-8.6 0.3,-0.1 0.7,-0.2 0.9,-0.4 0.9,-1.6 5,-0.6 3.6,-3.1 -1.2,-2.2 -3.2,0.8 -4.9,1.4 h -0.4 c -1,-1.3 -0.1,-2.7 -0.4,-3.9 z m 328.4,76.6 c 11.1,-8 23.4,-14.2 34,-23.3 -0.5,-0.5 -1,-1 -1.6,-1.4 -3.2,-2.2 -5.8,-4.7 -4.6,-9 1.2,-4.3 4.3,-7.7 8.5,-9.2 3,-1.2 4.9,0.1 5.4,3.2 0.3,2.3 0.1,4.7 -0.6,6.9 -0.5,2 -0.5,3.9 1.4,5.4 2.6,2 1.6,4.3 0.4,6.6 -0.7,1.3 -1.5,1.9 -2.6,0.8 -2.7,-2.9 -4.3,-0.7 -6,1.1 -9.4,10 -21.2,15.5 -34.3,18.9 z m 35,-36.6 c -1.2,0.4 -3.1,0.9 -2.9,2.2 0.3,2 2.4,3.1 4.2,3.6 1.8,0.5 1.5,-1.3 1.4,-2.3 -0.1,-1.7 -0.4,-3.5 -2.7,-3.5 z m -6.2,95 c -2.3,12.7 -9.8,22.4 -18.8,31.1 -15.6,15.1 -34.1,21.4 -55.8,17.9 -17.9,-2.9 -30.1,-17.6 -31.4,-37.9 -0.8,-12.5 -0.1,-25 3.4,-37.1 1.1,-3.7 1,-5.9 -3.5,-7.3 -5.5,-1.7 -10.3,-5.3 -14.5,-9.5 -1.5,-1.5 -2.6,-3.4 -5.2,-4.4 -0.5,8.5 -0.5,16.8 -2.3,24.9 -1,5.2 -3.2,10.2 -6.4,14.4 -4.9,6.3 -11.5,8.1 -19.1,7.1 -6.8,-0.9 -10,-5.9 -12.3,-11.7 -0.2,-0.6 -0.4,-1.1 -0.7,-2.2 -3.7,3 -5.9,6.8 -9.3,9.4 -11.5,9 -25.6,9.5 -37.3,0.6 -6.3,-4.9 -12.3,-10.2 -18.4,-15.3 -1.6,-1.3 -3,-3 -5.7,-3.6 2.2,6.7 4.5,13.1 2.3,20.1 -2.9,9.1 -8.3,15.9 -17.4,19.2 -2.6,0.9 -2.9,1.9 -2.3,4.2 1.2,4.6 0.5,9.2 -0.9,13.8 -1,3.3 -2.9,4.2 -6,2.4 -6.2,-3.8 -11.5,-8.5 -13.8,-15.8 -0.7,-2.1 -0.3,-4.4 -1.6,-6.3 -1.4,-7.3 -2.3,-8.1 -9.4,-8 -12.3,0.2 -23.2,4 -32,12.8 -11.1,11.2 -21.9,22.7 -32.9,34 -5.3,5.5 -11.2,9.8 -18.9,11.5 h -5.1 c -3.7,-0.9 -7.1,-2.9 -9.6,-5.7 -2.8,-3 -4.1,-7 -6.3,-10.4 v -17 c 3.2,-6.7 4.5,-14.1 8,-20.6 1.4,-2.6 2.4,-5.4 4.5,-7.8 1.4,1.5 0.4,2.6 0,3.7 -3,9.8 -6.5,19.6 -8,29.8 -0.8,5.2 -0.6,10.1 3.9,13.7 4.5,3.6 9.5,2.3 14.1,0.2 C 31.6,254.9 38,247 45,240 c 9.8,-9.9 18.7,-20.8 30.3,-28.9 11.6,-8.1 24.1,-11.2 38.5,-10.6 6.1,0.2 9,3.1 12.8,5.8 7,5 18.2,3.9 24,-2.7 2.1,-2.4 1.9,-4.7 0.4,-7.3 -3.4,-5.7 -7.8,-10.8 -13.1,-15 C 124.5,170.6 111,160 97.5,149.4 c -2.6,-2 -3.4,-4 -3.4,-7.4 0.1,-13 6.4,-21.2 17.5,-27.2 28,-15.3 56.6,-29.4 87.2,-38.7 3.8,-1.2 7.8,-1.8 11.8,-1.6 5.1,0.2 6.9,2.2 6.5,7.2 -0.5,5 -2.2,9.8 -4.9,14 -6.8,11.4 -17.8,19.6 -24,31.5 1.1,-8.7 6,-15.4 11,-22 3,-4 6.4,-7.7 9.4,-11.7 3,-4 2.1,-5.5 -2.9,-5.7 -4,-0.2 -8,0.4 -11.8,1.7 -31.5,11.3 -62,24.7 -90.2,42.9 -1.8,1.1 -3.7,2.2 -5.1,4.5 3.7,2 7.2,3.9 10.9,5.8 21.6,11 41.3,24.9 60.1,40 4.3,3.6 9,6.8 14.1,9.4 12.9,6.4 25.9,4.3 36.2,-5.8 3.2,-3.2 5.9,-7 10.6,-9.9 v 8.1 c -0.1,4.9 2.1,7.8 7,8.6 6,1.1 11.6,-0.4 16.8,-3.1 3.2,-1.6 3.4,-4.8 3.4,-7.8 -0.1,-13.6 -0.2,-27.3 -0.7,-41 -0.7,-20.8 -1.5,-41.6 -2.5,-62.4 -0.6,-15.1 -2.1,-30.2 -4.6,-45.2 -1.1,-6.7 -0.4,-13.6 1.9,-19.9 3,2 3,5 3.6,7.5 4.6,18.9 5.5,38.2 6.6,57.4 1.1,19.8 1.5,39.6 4.4,59.2 2.3,15 15,21.7 26.2,25.9 2,0.7 3.1,-0.5 4,-2 3.9,-6.6 8.9,-12.4 14.3,-18.7 -6.5,-2.4 -12.5,-5.9 -17.8,-10.2 -13.5,-11.3 -15.7,-33.2 -4.5,-45.1 7.2,-7.7 17.1,-9 26.8,-10.7 4.8,-0.8 9.5,-1.5 14.3,-2.2 7.3,-0.9 14.1,-4.2 19.4,-9.3 0.9,-0.9 2.2,-2.2 3.5,-1.3 1.7,1.2 0.3,2.9 -0.3,4 -5.8,9.9 -13.9,17 -25.2,19.7 -9.6,2.4 -19.5,3.9 -29.2,6.2 -11.5,2.8 -12.9,6.4 -6.2,16.1 12.1,17.7 28.9,24.7 49.5,13 8.2,-4.7 16.5,-9.4 24.8,-13.9 0.9,-0.5 1.9,-1.9 3.1,-0.7 1.2,1.2 0,2.2 -0.4,3.2 -2.8,5.7 -5.8,10.9 -11.7,14.3 -10.4,5.9 -20.4,12.6 -30.5,19 -9.1,5.6 -17.2,12.7 -23.8,21.1 12,1.2 23.6,1.5 35.1,1.8 10.5,0.3 21,0.6 31.4,1.8 6.2,0.7 11.7,2.8 16,7.3 1.8,1.9 3.1,1.9 5.4,0.4 6,-3.8 12.4,-6.9 19.1,-9.4 2.6,-1 2.8,-2.2 1.7,-4.3 -1.7,-3.3 -2.6,-6.8 -2.8,-10.5 -0.8,-11.8 8,-17.2 19.4,-13.1 6.5,2.3 11.9,6.7 16.5,11.8 4.6,5.1 1.5,16.5 -5.2,18.5 -3.6,1.1 -7.2,2.5 -10.9,3.4 -3.2,0.8 -5.6,1.9 -5.6,5.7 0.1,0.9 -0.4,1.7 -1.2,2 -1,0.2 -1.5,-0.6 -1.7,-1.4 -0.7,-3.2 -2.6,-2.3 -4.5,-1.4 -7.1,3.3 -14.1,6.6 -21.3,9.7 -1.9,0.8 -2.2,2.1 -2.1,3.9 0.1,4.5 0,9 0,13.5 z m -101.1,-5.2 c -0.1,23.4 8.6,34.6 27.6,38.8 29.2,6.4 55.9,-11.9 68,-29.4 3.2,-4.7 3.5,-9.9 1.9,-15.3 -1,-3.4 -2.4,-4 -5.2,-1.6 -6.1,5.2 -11.8,10.7 -17.5,16.4 -7.7,7.6 -14.5,16 -22.8,23 -9.1,7.7 -20,6 -26.6,-3.9 -4.4,-6.7 -4.6,-14.1 -3.7,-21.6 1.1,-8.6 4.5,-16.6 8.2,-24.4 1.9,-3.9 0.8,-4.9 -3.1,-4.7 -5.5,0.3 -11,-0.6 -16.4,-1.6 -3.4,-0.6 -4.8,0.5 -5.8,3.5 -2.6,7.7 -4.7,15.5 -4.6,20.8 z m 86.7,-17.1 c -2.5,-1.3 -5.2,-2.2 -8,-2.7 -14,-2.3 -28.1,-1.9 -42.3,-1.8 -2.2,0 -2.8,1.1 -3.4,2.8 -2,6.5 -4.2,12.9 -5.9,19.5 -1.3,4.8 -2.2,9.7 -1.3,14.8 1.1,6 4.7,9 10.7,8.8 6.4,-0.2 11.2,-3.6 15.6,-7.8 11.7,-10.9 22.2,-22.7 34.6,-33.6 z m 38.2,-34 3.8,9.5 c 0.4,1.1 0.9,2.1 2.5,1.3 3.4,-1.5 7.2,-2 10.4,-4.9 -5.2,-3.3 -10.4,-5.5 -16.7,-5.9 z m -292,69.6 c 1.5,4.5 3.7,8.2 9.2,10.3 -2,-5.3 -4.7,-8.6 -9.2,-10.3 z M 391,209 l 1.1,-3.2 c 15,-5.4 29.6,-11.6 42.5,-21.1 5.7,-4.2 7.8,-11.4 13,-16.2 3.8,-3.5 6.6,-3.6 9.1,0.9 2.3,4.1 1.6,8.5 -0.5,12.4 -1.6,3 -4.3,1.2 -6.5,0.1 -2.1,-0.9 -3.7,-4.1 -5.6,-3.3 -1.7,0.6 -2.4,3.7 -3.7,5.6 -6.1,9.2 -15.4,13.9 -25.3,17.6 -6.4,2.4 -13.1,3.6 -19.7,5.1 -1.6,0.4 -3.3,0.7 -4.4,2.1 z m 63.9,-32 c -0.5,-2.7 -1.4,-4.3 -3.8,-4.4 -0.5,0 -1.4,0.9 -1.4,1.1 0.8,2.2 2.6,2.7 5.2,3.3 z m -53,-127.2 c 0.4,-3 2.3,-5.5 5.1,-6.5 7.1,-2.8 14.2,-5.6 21.3,-8.2 11.9,-4.4 23.9,-8.8 36,-13.2 0.5,3.5 -1.5,5 -3.7,5.9 -19.1,7.5 -38.3,15 -57.4,22.3 -0.3,0 -0.7,-0.2 -1.3,-0.3 z m 42.7,23.5 c 1.2,-4.6 2.2,-8.6 3.5,-12.5 0.5,-1.8 1.3,-3.4 2.4,-4.9 1.2,-1.7 2.7,-3.9 5.3,-2.7 2.2,0.9 3.6,3.1 3.5,5.5 0,1.3 0.2,2.8 -1.1,3.7 -1.8,1.3 -2.1,-0.8 -3,-1.6 -2.1,-1.9 -3.2,-0.8 -4.1,1.2 -2.1,4.7 -2.9,9.9 -4.1,14.8 -0.7,2.7 -0.9,5.6 -3.8,8.2 -1,-4.7 -2.5,-9.3 -4.3,-13.7 -1.1,-2.4 -1.8,-4.9 -5.5,-4.5 -2.5,0.3 -4.7,-2.1 -5,-4.1 -0.4,-2.3 1.4,-4.7 3.5,-6.1 2.5,-1.6 4,0.6 5.5,2 4.1,3.9 5.1,9.3 7.2,14.7 z m 21,105.1 c -1,-2.3 -1.7,-4.7 -1.9,-7.2 -2.1,-15.6 -11.1,-27.5 -21.4,-38.6 -15,-16.1 -31.4,-30.8 -45.6,-47.6 -6.2,-7.4 -12,-15.1 -17.8,-22.8 -3.2,-4.2 -2.2,-9.2 -1.4,-14 0.3,-1.8 1.4,-2 2.9,-1 6.9,4.9 13.6,10.2 20,15.7 0.6,0.5 1.6,1.2 1.1,2 -0.7,1.2 -2.1,0.5 -3.2,0.7 -1.4,-0.9 -3,-1.4 -4.5,-0.4 -0.6,0.4 0.5,1.3 1.2,1.7 12,14 25.6,26.6 38.3,40 8.4,8.8 16.9,17.4 24.2,27.2 9.9,13.6 12.9,28.2 8.1,44.3 z m 0,0.1 c 5.9,-6.3 8.6,-14.2 9.4,-22.4 2.1,-23.3 0.6,-46.6 -1.5,-69.8 -1.2,-13.1 -3.1,-26.1 -4.7,-39.1 -0.7,-5.9 0.6,-11.5 2.6,-17.3 2.6,2.5 2.9,5.6 3.6,8.4 5.5,22.4 7.3,45.3 8.3,68.2 0.8,17.3 0.8,34.6 2.7,51.8 0.3,2.8 1,5.6 1.8,8.2 2.6,8.4 6.2,10.4 14.9,9.2 8.1,-1.1 15.7,-4.8 21.7,-10.4 3.9,-3.6 7.9,-7 12.6,-11.2 0.2,3.3 0.5,5.5 0.5,7.8 0.2,5.7 2.6,8.9 8.2,10.2 9.4,2.3 17.5,-0.5 24.3,-6.9 4,-3.7 7.3,-8.1 11,-12.4 2.2,2.3 1.6,3.4 1.4,4.4 -1.3,5 0.3,9 4.4,11.8 4.1,2.8 8.3,1.6 12.2,-0.8 5.2,-3.3 8.9,-7.9 12.2,-13 0.7,-1.1 1.6,-2 2.6,-3.3 2,1.9 1.5,4.2 1.8,6.1 1.2,6.7 4.3,10 10.9,11 7.2,1.1 15.1,-5.3 15.1,-12.6 0,-20 -1.6,-39.9 -2.9,-59.8 -1.3,-19.8 -2.2,-39.5 -4.6,-59.2 -0.6,-5.3 1.9,-9.6 4.8,-15 4.7,11.8 9.5,22.6 12.3,34.4 -3.4,0.2 -4,-3.1 -6.9,-3.6 0.4,6.9 0.6,13.6 1.1,20.2 2,24.1 3.5,48.1 3.3,72.3 -0.1,8.9 -1.1,17.6 -5.5,25.5 -1.1,2.2 -2.5,4.3 -4,6.3 -7.5,9.2 -18.8,8.7 -25.5,-1.2 -1.5,-2.2 -2.7,-4.6 -4.1,-7.1 -1.9,3.1 -3.7,6.4 -5.8,9.3 -3.4,4.7 -8,7.6 -14,7.4 -6,-0.2 -9.8,-3.5 -11.8,-9.1 -0.6,-1.9 -1.4,-3.7 -2.2,-6.2 -3.6,4.2 -6.8,8.4 -11,11.5 -5.5,4.1 -11.2,6.9 -18.4,6.1 -7.8,-0.9 -12.4,-4.9 -13.4,-12.8 -0.1,-1.1 0.4,-2.6 -0.8,-3.2 -1.5,-0.8 -2.3,0.9 -3.2,1.7 -2.7,2.5 -5.3,5.1 -7.9,7.6 -5.5,5.6 -13,9 -20.8,9.6 -9.4,0.7 -14.5,-2.6 -18.3,-11.3 -1.7,-3.9 -1.9,-8.1 -3.6,-12.7 -5.1,35.6 -30.4,45 -61,47.6 2.8,-1.8 5.5,-3.7 8.4,-5.4 9.4,-5.6 19,-11.1 27.8,-17.6 4.7,-3.7 9.6,-7.4 12,-13.2 z m 10.3,57.7 c 2.1,-2.9 4.4,-5.7 6.4,-8.7 1.1,-1.7 3.1,-3.4 1.7,-5.7 -1.4,-2.3 -3.6,-0.5 -5.9,-0.6 -0.2,-2.4 0.9,-4.1 2.3,-5.7 1.2,-1.4 3.2,-2 5,-1.5 2.1,0.6 2.5,2.4 2.6,4.3 0.4,8.8 -5.9,13.5 -12.1,17.9 z M 528.1,91.3 c -0.3,-0.8 -0.1,-1.8 -1,-2.2 l 1,-3 c 0.9,0.5 0.8,1.4 1,2.2 0,1 0,2.1 -1,3 z m 0,0 c -0.4,3.3 -1,6.6 -1.2,9.9 -0.1,2 -0.8,4.7 1.7,5.8 2.5,1.1 3.1,-1.9 5.2,-2.9 0.3,3.3 -1,6.5 -3.6,8.7 -2.6,2.4 -5.5,1.2 -6.5,-2.8 -1.7,-7.3 0.5,-14.1 3.2,-20.8 1.1,0.3 0.9,1.3 1.2,2.1 z m 6.4,144.4 c 8.2,-4.6 13.6,-11 19,-17.2 2.6,-3 5.6,-5.8 8.8,-8.1 3.5,-2.6 7.6,-3.7 11.8,-2.4 5.2,1.6 8.7,0.1 11.2,-4.6 0.6,-0.9 1.3,-1.7 2.1,-2.4 1.4,1.6 -1.1,4.9 2.6,4.9 3.2,0 2,-2.3 2.4,-3.8 0.2,-0.6 0.5,-1.3 0.8,-1.8 0.4,-0.5 0.9,-1 1.3,-1.5 3.5,7.2 0.1,13.2 -7.4,13.2 -1.5,0 -3,0 -4.3,1 -3.2,2.4 -6.9,2.6 -10.5,1.7 -4.9,-1.2 -8.8,0.4 -12.6,3.1 -5.6,3.9 -9.8,9.5 -15.1,13.8 -2.6,2.1 -5,5.3 -10.1,4.1 z m 33.3,-133.9 c -1.2,-2.4 -0.8,-5.4 1,-7.4 2.5,-3 1.9,-5.7 0.6,-8.6 -1,-2.4 -2,-4.9 -3.1,-7.3 -0.9,-2.1 -1.8,-3.6 -4.7,-3.4 -2.6,0.1 -4.9,-1.8 -5.3,-4.4 -0.2,-2.2 1.6,-4.8 3.8,-6 2.5,-1.3 4,0.7 5.5,2.2 4,4 5,9.6 7,15.4 1.2,-4.6 2.3,-8.5 3.2,-12.5 0.4,-2 1.2,-3.8 2.3,-5.5 1.4,-1.8 2.8,-4.3 5.6,-3 2.6,1.2 3.8,3.6 3.5,6.6 -0.1,1.2 -0.4,2.5 -1.5,3 -1.1,0.5 -1.6,-0.9 -2.2,-1.6 -2,-2.3 -3.4,-1.3 -4.4,1 -2.5,5.8 -3.7,12 -5,18.2 -0.3,1.6 0.4,2.2 1.8,3 1.8,1.2 3.5,2.5 5,4.1 3.9,4 2.6,9 -2.8,10.5 -10.7,3.1 -10.5,3 -8.3,13.6 2,9.7 3.2,19.5 1.6,29.5 -1.8,-3.1 -1,-6.6 -1.6,-9.9 -1.4,-8 -2.5,-16.1 -4.1,-24.1 -0.9,-4.8 -0.1,-8.9 3.4,-12.4 l 5,-2.3 c -3.4,-3.4 -4.6,0.1 -6.3,1.3 z m 3.8,-69.4 c 1.4,2.8 2.3,5.8 2.5,8.9 0.1,2.2 0.7,4.3 1.7,6.2 0.9,1.5 2.2,2.8 4,2 2.2,-0.9 1.2,-2.7 0.6,-4.2 -1,-2.6 -2.6,-5.1 -2.5,-8 0,-1.9 -0.5,-4 2,-5.5 1.1,5.4 4.5,10.2 4,15.8 -0.2,3.2 -0.8,7 -4.4,8.3 -3.6,1.3 -5.1,-2.1 -7.1,-4.4 -0.5,0.8 -0.9,1.5 -1.3,2.2 -1.4,2.8 -3.4,4.7 -6.7,4 -3.3,-0.7 -4.2,-3.5 -4.5,-6.5 -0.3,-3.4 0.3,-6.7 -1.8,-10 -1.4,-2.3 1.4,-4.3 3.5,-5.8 1.3,3.5 1,7 1.2,10.5 0.2,2.2 -0.3,5.3 3.1,5.1 3.1,-0.2 5.1,-2.5 4.9,-5.8 -0.1,-3 -0.7,-5.9 -1,-8.9 -0.1,-1.5 0.5,-3 1.8,-3.9 z m 38.5,55.8 c -0.6,3.4 -1.4,6.8 -1.8,10.3 -0.3,2.4 -0.9,5.3 1.9,6.6 2.6,1.2 3.3,-2.1 5.6,-3.4 -0.2,3.9 -1.4,6.9 -3.9,9.2 -2.8,2.5 -5.9,1 -6.7,-3.2 -0.9,-4.7 -0.2,-9.3 1,-13.8 0.7,-2.7 1.9,-5.3 2.9,-7.9 z M 612,4.3 c -0.2,2.7 -1.9,4.3 -4.3,5.3 -41.3,15.9 -82.7,31.7 -124,47.5 -0.5,0.1 -1,0.2 -1.5,0.1 0,-4.3 2.8,-6 6.2,-7.4 21.3,-8.8 43,-16.5 64.6,-24.6 18.6,-7 37.4,-13.7 56,-20.5 0.9,-0.3 1.7,-1.1 3,-0.4 z m 34.2,216.4 c 1.9,-2.5 3.9,-4.9 5.6,-7.5 1.1,-1.7 3.2,-3.4 1.8,-5.8 -1.5,-2.6 -3.8,-0.8 -6,-0.1 -0.2,-1.9 0.4,-3.9 1.7,-5.4 1.1,-1.9 3.4,-2.9 5.6,-2.4 2.7,0.6 3,3.1 2.9,5.2 -0.5,7.6 -5.1,12.4 -10.5,16.7 z M 678.6,28.1 c 5.1,11.6 9.4,22.5 12.4,34.6 -3.5,-0.7 -4.2,-3.1 -6.9,-4 0,1.4 -0.1,2.7 0,3.9 2,29.5 4.3,59.1 6.1,88.6 0.7,12.5 -1.2,25 -5.6,36.7 -0.3,0.9 -0.4,2.4 -2.8,2.7 0,-9.5 0.2,-18.9 0,-28.2 -0.8,-34.3 -4,-68.4 -6.3,-102.6 -0.4,-5.3 -0.9,-10.6 -1.5,-15.9 -0.6,-5.6 1.6,-10.3 4.6,-15.8 z M 709,3 c -3,2.3 -6.3,4.1 -9.9,5.4 -15.8,6 -31.5,12.3 -47.2,18.4 -1.8,0.7 -3.5,1.9 -5.8,1.4 0.3,-4.7 3.8,-6.2 7.3,-7.6 C 671.1,14 688.9,7.5 706.5,1 c 0.6,-0.2 1.3,-0.2 1.5,-1 2.2,0.4 0.5,2 1,3 z M 73.8,124 c -0.9,3.8 -1.8,7.5 -2.6,11.3 -0.3,1.3 -0.4,2.7 -0.2,4 0.2,2 -1,4.7 1.6,5.8 2.9,1.3 3.6,-1.9 6.2,-4.3 -0.6,4.6 -1.7,7.6 -4,10 -2.6,2.6 -5.6,1.5 -6.7,-2.2 -1.6,-5 -0.4,-9.9 0.9,-14.7 0.8,-3.5 1.7,-7.2 4.8,-9.9 z"
     id="path1"
     sodipodi:nodetypes="ccccscccccccccccccccccccscccccccsscccscccccccccccccccccccccccccccccscssccccccccccccccccccccccccccccccccccccccccccccccccccsscssccccccccccccccccccsccccccscccccccccccsccccccccccccccsccccccccccsccccccccsccccccccccccsccccccccccccscccsccsccccccccccccccscccccccccccccccccccccccccccccccccccsccccccccccccscccccccccccccccccccccccccccccccccccccccccccccccccccccccccccccccccccccccccccccccccccccsccccscccccccccccccccccccccscccccsccccccccccccscccccccccccccccccsccccccccccccscccccccccccscccsccccccccccccscccccscccccccccccccccccccccsccscccccccccccccccccccccccccccccccccccccccccccccccccccccccccccccc"
     style="fill:#000000;fill-opacity:1.0" />
</svg>
