<svg width="1200" height="630" viewBox="0 0 1200 630" fill="none" xmlns="http://www.w3.org/2000/svg">
  <rect width="1200" height="630" fill="#2563EB"/>
  <rect x="100" y="100" width="1000" height="430" rx="12" fill="white"/>
  <rect x="150" y="150" width="900" height="330" rx="8" fill="#F8FAFC"/>
  
  <!-- Logo -->
  <rect x="200" y="200" width="64" height="64" rx="12" fill="#2563EB"/>
  <path d="M232 184L250 218H214L232 184Z" fill="white"/>
  <circle cx="232" cy="230" r="4" fill="white"/>
  
  <!-- Text -->
  <text x="300" y="230" font-family="Arial, sans-serif" font-size="48" font-weight="bold" fill="#1E293B">Next.js Beginner Template</text>
  <text x="300" y="280" font-family="Arial, sans-serif" font-size="24" fill="#64748B">A clean, modern starter template for your Next.js projects</text>
  
  <!-- Features -->
  <g transform="translate(300, 330)">
    <circle cx="12" cy="12" r="12" fill="#2563EB"/>
    <path d="M8 12L12 16L18 8" stroke="white" stroke-width="2" stroke-linecap="round" stroke-linejoin="round"/>
    <text x="40" y="18" font-family="Arial, sans-serif" font-size="18" fill="#64748B">Next.js 14</text>
  </g>
  
  <g transform="translate(500, 330)">
    <circle cx="12" cy="12" r="12" fill="#2563EB"/>
    <path d="M8 12L12 16L18 8" stroke="white" stroke-width="2" stroke-linecap="round" stroke-linejoin="round"/>
    <text x="40" y="18" font-family="Arial, sans-serif" font-size="18" fill="#64748B">TypeScript</text>
  </g>
  
  <g transform="translate(700, 330)">
    <circle cx="12" cy="12" r="12" fill="#2563EB"/>
    <path d="M8 12L12 16L18 8" stroke="white" stroke-width="2" stroke-linecap="round" stroke-linejoin="round"/>
    <text x="40" y="18" font-family="Arial, sans-serif" font-size="18" fill="#64748B">TailwindCSS</text>
  </g>
  
  <!-- Footer -->
  <text x="600" y="550" font-family="Arial, sans-serif" font-size="20" fill="#64748B" text-anchor="middle">Created with Cursor Agent</text>
</svg> 